# xmcd
#
# Track frame offsets:
#  150
#  19798
#  41847
#  67646
#  99746
#  125771
#  165295
#
# Disc length: 2621 seconds
#
# Revision: 0
# Processed by: cddbd v1.5.1PL0 Copyright (c) Steve Scherf et al.
# Submitted via: AltoMP3_Maker 3.0
#
DISCID=520a3b07
DTITLE=Ghasedak - Mehrdad Hedayati
DYEAR=1900
DGENRE=
TTITLE0=Chi Direh
TTITLE1=Shadi Jan
TTITLE2=Faraghe Yar
TTITLE3=Dar Konje Delam
TTITLE4=Ghasedak
TTITLE5=Ghole Khandoon
TTITLE6=Nakhlestan
EXTD=
EXTT0=
EXTT1=
EXTT2=
EXTT3=
EXTT4=
EXTT5=
EXTT6=
PLAYORDER=
